<svg xmlns="http://www.w3.org/2000/svg" viewBox="0 0 800 620" width="800" height="620" role="img">
  <defs>
    <linearGradient id="ng" x1="0" y1="0" x2="1" y2="1">
      <stop offset="0" stop-color="#072039"/><stop offset="1" stop-color="#0b2d53"/>
    </linearGradient>
    <linearGradient id="gl" x1="0" y1="0" x2="0" y2="1">
      <stop offset="0" stop-color="#f4cf8c"/><stop offset="1" stop-color="#e9b048"/>
    </linearGradient>
  </defs>
  <rect width="800" height="620" fill="#0b2d53"/><g stroke="#f8f3f1" stroke-width="1" opacity="0.07"><path d="M0 0V620"/><path d="M40 0V620"/><path d="M80 0V620"/><path d="M120 0V620"/><path d="M160 0V620"/><path d="M200 0V620"/><path d="M240 0V620"/><path d="M280 0V620"/><path d="M320 0V620"/><path d="M360 0V620"/><path d="M400 0V620"/><path d="M440 0V620"/><path d="M480 0V620"/><path d="M520 0V620"/><path d="M560 0V620"/><path d="M600 0V620"/><path d="M640 0V620"/><path d="M680 0V620"/><path d="M720 0V620"/><path d="M760 0V620"/><path d="M800 0V620"/><path d="M0 0H800"/><path d="M0 40H800"/><path d="M0 80H800"/><path d="M0 120H800"/><path d="M0 160H800"/><path d="M0 200H800"/><path d="M0 240H800"/><path d="M0 280H800"/><path d="M0 320H800"/><path d="M0 360H800"/><path d="M0 400H800"/><path d="M0 440H800"/><path d="M0 480H800"/><path d="M0 520H800"/><path d="M0 560H800"/><path d="M0 600H800"/></g>
         <g fill="#e9b048" opacity="0.18"><circle cx="28" cy="28" r="1.6"/><circle cx="28" cy="84" r="1.6"/><circle cx="28" cy="140" r="1.6"/><circle cx="28" cy="196" r="1.6"/><circle cx="28" cy="252" r="1.6"/><circle cx="28" cy="308" r="1.6"/><circle cx="28" cy="364" r="1.6"/><circle cx="28" cy="420" r="1.6"/><circle cx="28" cy="476" r="1.6"/><circle cx="28" cy="532" r="1.6"/><circle cx="28" cy="588" r="1.6"/><circle cx="84" cy="28" r="1.6"/><circle cx="84" cy="84" r="1.6"/><circle cx="84" cy="140" r="1.6"/><circle cx="84" cy="196" r="1.6"/><circle cx="84" cy="252" r="1.6"/><circle cx="84" cy="308" r="1.6"/><circle cx="84" cy="364" r="1.6"/><circle cx="84" cy="420" r="1.6"/><circle cx="84" cy="476" r="1.6"/><circle cx="84" cy="532" r="1.6"/><circle cx="84" cy="588" r="1.6"/><circle cx="140" cy="28" r="1.6"/><circle cx="140" cy="84" r="1.6"/><circle cx="140" cy="140" r="1.6"/><circle cx="140" cy="196" r="1.6"/><circle cx="140" cy="252" r="1.6"/><circle cx="140" cy="308" r="1.6"/><circle cx="140" cy="364" r="1.6"/><circle cx="140" cy="420" r="1.6"/><circle cx="140" cy="476" r="1.6"/><circle cx="140" cy="532" r="1.6"/><circle cx="140" cy="588" r="1.6"/><circle cx="196" cy="28" r="1.6"/><circle cx="196" cy="84" r="1.6"/><circle cx="196" cy="140" r="1.6"/><circle cx="196" cy="196" r="1.6"/><circle cx="196" cy="252" r="1.6"/><circle cx="196" cy="308" r="1.6"/><circle cx="196" cy="364" r="1.6"/><circle cx="196" cy="420" r="1.6"/><circle cx="196" cy="476" r="1.6"/><circle cx="196" cy="532" r="1.6"/><circle cx="196" cy="588" r="1.6"/><circle cx="252" cy="28" r="1.6"/><circle cx="252" cy="84" r="1.6"/><circle cx="252" cy="140" r="1.6"/><circle cx="252" cy="196" r="1.6"/><circle cx="252" cy="252" r="1.6"/><circle cx="252" cy="308" r="1.6"/><circle cx="252" cy="364" r="1.6"/><circle cx="252" cy="420" r="1.6"/><circle cx="252" cy="476" r="1.6"/><circle cx="252" cy="532" r="1.6"/><circle cx="252" cy="588" r="1.6"/><circle cx="308" cy="28" r="1.6"/><circle cx="308" cy="84" r="1.6"/><circle cx="308" cy="140" r="1.6"/><circle cx="308" cy="196" r="1.6"/><circle cx="308" cy="252" r="1.6"/><circle cx="308" cy="308" r="1.6"/><circle cx="308" cy="364" r="1.6"/><circle cx="308" cy="420" r="1.6"/><circle cx="308" cy="476" r="1.6"/><circle cx="308" cy="532" r="1.6"/><circle cx="308" cy="588" r="1.6"/><circle cx="364" cy="28" r="1.6"/><circle cx="364" cy="84" r="1.6"/><circle cx="364" cy="140" r="1.6"/><circle cx="364" cy="196" r="1.6"/><circle cx="364" cy="252" r="1.6"/><circle cx="364" cy="308" r="1.6"/><circle cx="364" cy="364" r="1.6"/><circle cx="364" cy="420" r="1.6"/><circle cx="364" cy="476" r="1.6"/><circle cx="364" cy="532" r="1.6"/><circle cx="364" cy="588" r="1.6"/><circle cx="420" cy="28" r="1.6"/><circle cx="420" cy="84" r="1.6"/><circle cx="420" cy="140" r="1.6"/><circle cx="420" cy="196" r="1.6"/><circle cx="420" cy="252" r="1.6"/><circle cx="420" cy="308" r="1.6"/><circle cx="420" cy="364" r="1.6"/><circle cx="420" cy="420" r="1.6"/><circle cx="420" cy="476" r="1.6"/><circle cx="420" cy="532" r="1.6"/><circle cx="420" cy="588" r="1.6"/><circle cx="476" cy="28" r="1.6"/><circle cx="476" cy="84" r="1.6"/><circle cx="476" cy="140" r="1.6"/><circle cx="476" cy="196" r="1.6"/><circle cx="476" cy="252" r="1.6"/><circle cx="476" cy="308" r="1.6"/><circle cx="476" cy="364" r="1.6"/><circle cx="476" cy="420" r="1.6"/><circle cx="476" cy="476" r="1.6"/><circle cx="476" cy="532" r="1.6"/><circle cx="476" cy="588" r="1.6"/><circle cx="532" cy="28" r="1.6"/><circle cx="532" cy="84" r="1.6"/><circle cx="532" cy="140" r="1.6"/><circle cx="532" cy="196" r="1.6"/><circle cx="532" cy="252" r="1.6"/><circle cx="532" cy="308" r="1.6"/><circle cx="532" cy="364" r="1.6"/><circle cx="532" cy="420" r="1.6"/><circle cx="532" cy="476" r="1.6"/><circle cx="532" cy="532" r="1.6"/><circle cx="532" cy="588" r="1.6"/><circle cx="588" cy="28" r="1.6"/><circle cx="588" cy="84" r="1.6"/><circle cx="588" cy="140" r="1.6"/><circle cx="588" cy="196" r="1.6"/><circle cx="588" cy="252" r="1.6"/><circle cx="588" cy="308" r="1.6"/><circle cx="588" cy="364" r="1.6"/><circle cx="588" cy="420" r="1.6"/><circle cx="588" cy="476" r="1.6"/><circle cx="588" cy="532" r="1.6"/><circle cx="588" cy="588" r="1.6"/><circle cx="644" cy="28" r="1.6"/><circle cx="644" cy="84" r="1.6"/><circle cx="644" cy="140" r="1.6"/><circle cx="644" cy="196" r="1.6"/><circle cx="644" cy="252" r="1.6"/><circle cx="644" cy="308" r="1.6"/><circle cx="644" cy="364" r="1.6"/><circle cx="644" cy="420" r="1.6"/><circle cx="644" cy="476" r="1.6"/><circle cx="644" cy="532" r="1.6"/><circle cx="644" cy="588" r="1.6"/><circle cx="700" cy="28" r="1.6"/><circle cx="700" cy="84" r="1.6"/><circle cx="700" cy="140" r="1.6"/><circle cx="700" cy="196" r="1.6"/><circle cx="700" cy="252" r="1.6"/><circle cx="700" cy="308" r="1.6"/><circle cx="700" cy="364" r="1.6"/><circle cx="700" cy="420" r="1.6"/><circle cx="700" cy="476" r="1.6"/><circle cx="700" cy="532" r="1.6"/><circle cx="700" cy="588" r="1.6"/><circle cx="756" cy="28" r="1.6"/><circle cx="756" cy="84" r="1.6"/><circle cx="756" cy="140" r="1.6"/><circle cx="756" cy="196" r="1.6"/><circle cx="756" cy="252" r="1.6"/><circle cx="756" cy="308" r="1.6"/><circle cx="756" cy="364" r="1.6"/><circle cx="756" cy="420" r="1.6"/><circle cx="756" cy="476" r="1.6"/><circle cx="756" cy="532" r="1.6"/><circle cx="756" cy="588" r="1.6"/></g>
  
    <rect x="120" y="150" width="230" height="150" rx="18" fill="#f8f3f1" stroke="#f8f3f1" stroke-width="2.5"/>
    <rect x="120" y="150" width="230" height="44" rx="18" fill="#f8f3f1"/>
    <rect x="120" y="174" width="230" height="20" fill="#f8f3f1"/>
    <path d="M156 234L314 234" stroke="#f8f3f1" stroke-width="8" stroke-linecap="round" opacity="0.36"/>
    <path d="M156 264L274 264" stroke="#f8f3f1" stroke-width="8" stroke-linecap="round" opacity="0.24"/>
    <rect x="450" y="330" width="230" height="150" rx="18" fill="#f8f3f1" stroke="#f8f3f1" stroke-width="2.5"/>
    <rect x="450" y="330" width="230" height="44" rx="18" fill="#f8f3f1"/>
    <rect x="450" y="354" width="230" height="20" fill="#f8f3f1"/>
    <path d="M486 414L644 414" stroke="#f8f3f1" stroke-width="8" stroke-linecap="round" opacity="0.36"/>
    <path d="M486 444L604 444" stroke="#f8f3f1" stroke-width="8" stroke-linecap="round" opacity="0.24"/>
    <path d="M350 224 h-40 v140 h40" fill="none" stroke="#e9b048" stroke-width="8" stroke-linecap="round" stroke-linejoin="round"/>
    <path d="M350 410 h-40 v-6" fill="none" stroke="#e9b048" stroke-width="8" stroke-linecap="round"/>
    <circle cx="350" cy="224" r="13" fill="#f8f3f1"/>
    <circle cx="310" cy="404" r="13" fill="#f8f3f1"/>
    <circle cx="450" cy="224" r="13" fill="#e9b048"/>
    <circle cx="450" cy="404" r="13" fill="#e9b048"/>
</svg>