<svg xmlns="http://www.w3.org/2000/svg" viewBox="0 0 800 620" width="800" height="620" role="img">
  <defs>
    <linearGradient id="ng" x1="0" y1="0" x2="1" y2="1">
      <stop offset="0" stop-color="#072039"/><stop offset="1" stop-color="#0b2d53"/>
    </linearGradient>
    <linearGradient id="gl" x1="0" y1="0" x2="0" y2="1">
      <stop offset="0" stop-color="#f4cf8c"/><stop offset="1" stop-color="#e9b048"/>
    </linearGradient>
  </defs>
  <rect width="800" height="620" fill="#f8f3f1"/><g stroke="#0b2d53" stroke-width="1" opacity="0.07"><path d="M0 0V620"/><path d="M40 0V620"/><path d="M80 0V620"/><path d="M120 0V620"/><path d="M160 0V620"/><path d="M200 0V620"/><path d="M240 0V620"/><path d="M280 0V620"/><path d="M320 0V620"/><path d="M360 0V620"/><path d="M400 0V620"/><path d="M440 0V620"/><path d="M480 0V620"/><path d="M520 0V620"/><path d="M560 0V620"/><path d="M600 0V620"/><path d="M640 0V620"/><path d="M680 0V620"/><path d="M720 0V620"/><path d="M760 0V620"/><path d="M800 0V620"/><path d="M0 0H800"/><path d="M0 40H800"/><path d="M0 80H800"/><path d="M0 120H800"/><path d="M0 160H800"/><path d="M0 200H800"/><path d="M0 240H800"/><path d="M0 280H800"/><path d="M0 320H800"/><path d="M0 360H800"/><path d="M0 400H800"/><path d="M0 440H800"/><path d="M0 480H800"/><path d="M0 520H800"/><path d="M0 560H800"/><path d="M0 600H800"/></g><g fill="#0b2d53" opacity="0.13"><circle cx="26" cy="26" r="1.4"/><circle cx="26" cy="78" r="1.4"/><circle cx="26" cy="130" r="1.4"/><circle cx="26" cy="182" r="1.4"/><circle cx="26" cy="234" r="1.4"/><circle cx="26" cy="286" r="1.4"/><circle cx="26" cy="338" r="1.4"/><circle cx="26" cy="390" r="1.4"/><circle cx="26" cy="442" r="1.4"/><circle cx="26" cy="494" r="1.4"/><circle cx="26" cy="546" r="1.4"/><circle cx="78" cy="26" r="1.4"/><circle cx="78" cy="78" r="1.4"/><circle cx="78" cy="130" r="1.4"/><circle cx="78" cy="182" r="1.4"/><circle cx="78" cy="234" r="1.4"/><circle cx="78" cy="286" r="1.4"/><circle cx="78" cy="338" r="1.4"/><circle cx="78" cy="390" r="1.4"/><circle cx="78" cy="442" r="1.4"/><circle cx="78" cy="494" r="1.4"/><circle cx="78" cy="546" r="1.4"/><circle cx="130" cy="26" r="1.4"/><circle cx="130" cy="78" r="1.4"/><circle cx="130" cy="130" r="1.4"/><circle cx="130" cy="182" r="1.4"/><circle cx="130" cy="234" r="1.4"/><circle cx="130" cy="286" r="1.4"/><circle cx="130" cy="338" r="1.4"/><circle cx="130" cy="390" r="1.4"/><circle cx="130" cy="442" r="1.4"/><circle cx="130" cy="494" r="1.4"/><circle cx="130" cy="546" r="1.4"/><circle cx="182" cy="26" r="1.4"/><circle cx="182" cy="78" r="1.4"/><circle cx="182" cy="130" r="1.4"/><circle cx="182" cy="182" r="1.4"/><circle cx="182" cy="234" r="1.4"/><circle cx="182" cy="286" r="1.4"/><circle cx="182" cy="338" r="1.4"/><circle cx="182" cy="390" r="1.4"/><circle cx="182" cy="442" r="1.4"/><circle cx="182" cy="494" r="1.4"/><circle cx="182" cy="546" r="1.4"/><circle cx="234" cy="26" r="1.4"/><circle cx="234" cy="78" r="1.4"/><circle cx="234" cy="130" r="1.4"/><circle cx="234" cy="182" r="1.4"/><circle cx="234" cy="234" r="1.4"/><circle cx="234" cy="286" r="1.4"/><circle cx="234" cy="338" r="1.4"/><circle cx="234" cy="390" r="1.4"/><circle cx="234" cy="442" r="1.4"/><circle cx="234" cy="494" r="1.4"/><circle cx="234" cy="546" r="1.4"/><circle cx="286" cy="26" r="1.4"/><circle cx="286" cy="78" r="1.4"/><circle cx="286" cy="130" r="1.4"/><circle cx="286" cy="182" r="1.4"/><circle cx="286" cy="234" r="1.4"/><circle cx="286" cy="286" r="1.4"/><circle cx="286" cy="338" r="1.4"/><circle cx="286" cy="390" r="1.4"/><circle cx="286" cy="442" r="1.4"/><circle cx="286" cy="494" r="1.4"/><circle cx="286" cy="546" r="1.4"/><circle cx="338" cy="26" r="1.4"/><circle cx="338" cy="78" r="1.4"/><circle cx="338" cy="130" r="1.4"/><circle cx="338" cy="182" r="1.4"/><circle cx="338" cy="234" r="1.4"/><circle cx="338" cy="286" r="1.4"/><circle cx="338" cy="338" r="1.4"/><circle cx="338" cy="390" r="1.4"/><circle cx="338" cy="442" r="1.4"/><circle cx="338" cy="494" r="1.4"/><circle cx="338" cy="546" r="1.4"/><circle cx="390" cy="26" r="1.4"/><circle cx="390" cy="78" r="1.4"/><circle cx="390" cy="130" r="1.4"/><circle cx="390" cy="182" r="1.4"/><circle cx="390" cy="234" r="1.4"/><circle cx="390" cy="286" r="1.4"/><circle cx="390" cy="338" r="1.4"/><circle cx="390" cy="390" r="1.4"/><circle cx="390" cy="442" r="1.4"/><circle cx="390" cy="494" r="1.4"/><circle cx="390" cy="546" r="1.4"/><circle cx="442" cy="26" r="1.4"/><circle cx="442" cy="78" r="1.4"/><circle cx="442" cy="130" r="1.4"/><circle cx="442" cy="182" r="1.4"/><circle cx="442" cy="234" r="1.4"/><circle cx="442" cy="286" r="1.4"/><circle cx="442" cy="338" r="1.4"/><circle cx="442" cy="390" r="1.4"/><circle cx="442" cy="442" r="1.4"/><circle cx="442" cy="494" r="1.4"/><circle cx="442" cy="546" r="1.4"/><circle cx="494" cy="26" r="1.4"/><circle cx="494" cy="78" r="1.4"/><circle cx="494" cy="130" r="1.4"/><circle cx="494" cy="182" r="1.4"/><circle cx="494" cy="234" r="1.4"/><circle cx="494" cy="286" r="1.4"/><circle cx="494" cy="338" r="1.4"/><circle cx="494" cy="390" r="1.4"/><circle cx="494" cy="442" r="1.4"/><circle cx="494" cy="494" r="1.4"/><circle cx="494" cy="546" r="1.4"/><circle cx="546" cy="26" r="1.4"/><circle cx="546" cy="78" r="1.4"/><circle cx="546" cy="130" r="1.4"/><circle cx="546" cy="182" r="1.4"/><circle cx="546" cy="234" r="1.4"/><circle cx="546" cy="286" r="1.4"/><circle cx="546" cy="338" r="1.4"/><circle cx="546" cy="390" r="1.4"/><circle cx="546" cy="442" r="1.4"/><circle cx="546" cy="494" r="1.4"/><circle cx="546" cy="546" r="1.4"/><circle cx="598" cy="26" r="1.4"/><circle cx="598" cy="78" r="1.4"/><circle cx="598" cy="130" r="1.4"/><circle cx="598" cy="182" r="1.4"/><circle cx="598" cy="234" r="1.4"/><circle cx="598" cy="286" r="1.4"/><circle cx="598" cy="338" r="1.4"/><circle cx="598" cy="390" r="1.4"/><circle cx="598" cy="442" r="1.4"/><circle cx="598" cy="494" r="1.4"/><circle cx="598" cy="546" r="1.4"/><circle cx="650" cy="26" r="1.4"/><circle cx="650" cy="78" r="1.4"/><circle cx="650" cy="130" r="1.4"/><circle cx="650" cy="182" r="1.4"/><circle cx="650" cy="234" r="1.4"/><circle cx="650" cy="286" r="1.4"/><circle cx="650" cy="338" r="1.4"/><circle cx="650" cy="390" r="1.4"/><circle cx="650" cy="442" r="1.4"/><circle cx="650" cy="494" r="1.4"/><circle cx="650" cy="546" r="1.4"/><circle cx="702" cy="26" r="1.4"/><circle cx="702" cy="78" r="1.4"/><circle cx="702" cy="130" r="1.4"/><circle cx="702" cy="182" r="1.4"/><circle cx="702" cy="234" r="1.4"/><circle cx="702" cy="286" r="1.4"/><circle cx="702" cy="338" r="1.4"/><circle cx="702" cy="390" r="1.4"/><circle cx="702" cy="442" r="1.4"/><circle cx="702" cy="494" r="1.4"/><circle cx="702" cy="546" r="1.4"/><circle cx="754" cy="26" r="1.4"/><circle cx="754" cy="78" r="1.4"/><circle cx="754" cy="130" r="1.4"/><circle cx="754" cy="182" r="1.4"/><circle cx="754" cy="234" r="1.4"/><circle cx="754" cy="286" r="1.4"/><circle cx="754" cy="338" r="1.4"/><circle cx="754" cy="390" r="1.4"/><circle cx="754" cy="442" r="1.4"/><circle cx="754" cy="494" r="1.4"/><circle cx="754" cy="546" r="1.4"/></g>
  
    <line x1="386.8" y1="157.2" x2="379.9" y2="117.8" stroke="#e9b048" stroke-width="8" stroke-linecap="round" opacity="0.9"/><line x1="424.2" y1="160.0" x2="437.0" y2="122.1" stroke="#0b2d53" stroke-width="8" stroke-linecap="round" opacity="0.35"/><line x1="455.8" y1="180.4" x2="485.1" y2="153.2" stroke="#e9b048" stroke-width="8" stroke-linecap="round" opacity="0.9"/><line x1="473.7" y1="213.4" x2="512.5" y2="203.5" stroke="#0b2d53" stroke-width="8" stroke-linecap="round" opacity="0.35"/><line x1="473.6" y1="250.9" x2="512.4" y2="260.8" stroke="#e9b048" stroke-width="8" stroke-linecap="round" opacity="0.9"/><line x1="455.6" y1="283.8" x2="484.8" y2="311.1" stroke="#0b2d53" stroke-width="8" stroke-linecap="round" opacity="0.35"/><line x1="424.0" y1="304.1" x2="436.6" y2="342.1" stroke="#e9b048" stroke-width="8" stroke-linecap="round" opacity="0.9"/><line x1="386.5" y1="306.8" x2="379.5" y2="346.2" stroke="#0b2d53" stroke-width="8" stroke-linecap="round" opacity="0.35"/>
    <path d="M400 300 m-70 0 a70 70 0 0 1 140 0 v22 h-140 z" fill="#e9b048"/>
    <path d="M340 322 h120 v20 h-120 z" fill="#e9b048"/>
    <rect x="376" y="342" width="48" height="34" rx="6" fill="#0b2d53"/>
    <path d="M388 356L412 356" stroke="#f8f3f1" stroke-width="6" stroke-linecap="round" opacity="0.6"/><path d="M388 356L412 356" stroke="#f8f3f1" stroke-width="6" stroke-linecap="round" opacity="0.6"/><path d="M388 356L412 356" stroke="#f8f3f1" stroke-width="6" stroke-linecap="round" opacity="0.6"/>
    <circle cx="400" cy="232" r="34" fill="#f8f3f1"/>
    <rect x="212" y="430" width="150" height="120" rx="14" fill="#f8f3f1" stroke="#0b2d53" stroke-width="2.5"/>
    <path d="M244 490L330 490" stroke="#e9b048" stroke-width="12" stroke-linecap="round" opacity="0.9"/>
    <rect x="536" y="416" width="140" height="134" rx="14" fill="#f8f3f1" stroke="#0b2d53" stroke-width="2.5"/>
    <rect x="562" y="446" width="88" height="60" rx="8" fill="#e9b048"/>
    <path d="M584 534L628 534" stroke="#0b2d53" stroke-width="7" stroke-linecap="round" opacity="0.35"/>
</svg>